# xmcd
#
# Track frame offsets:
#	180
#	16828
#	35171
#	50215
#	70628
#	92459
#	109641
#	127017
#	139512
#	159574
#	189325
#	207381
#	231784
#	249134
#	265507
#	279499
#	298919
#	313494
#
# Disc length: 4391 seconds
#
# Revision: 2
# Processed by: cddbd v1.4PL0 Copyright (c) Steve Scherf et al.
# Submitted via: audiograbber 1.81.03
#
DISCID=04112512
DTITLE=Various Artist - West Coast Blues Party - Volume I
DYEAR=1996
DGENRE=
TTITLE0=Incognito - Hot Blues and Cold Beer
TTITLE1=Powder Blues - Lets Get Loose
TTITLE2=Kenny`Wayne - Blues Love Theme
TTITLE3=Jim`Byrnes - All Over You
TTITLE4=Incognito - Train Comin'
TTITLE5=Wailin' Walker - Pretty Girls Everywhere
TTITLE6=Oliver and the Elements - Another Mule
TTITLE7=Kenny`Wayne - Facin' The Wall
TTITLE8=Mark`Dufresne - Little Hot Plate
TTITLE9=Oliver and the Elements - House Gig
TTITLE10=Cal`Batchelor - Someday You're Gonna Need Me
TTITLE11=Jim`Byrnes - If I Ever Cried
TTITLE12=Catherine`St.Germain - Soul Train
TTITLE13=Catherine`St.Germain - Outa Sight Outa Mind
TTITLE14=Hurricane and the Twisters - Pure and Simple Blues
TTITLE15=Linda`Maze - Song About Him
TTITLE16=Hurricane and the Twisters - Fulla Hot Air
TTITLE17=Cal`Batchelor - She Can't Be Trusted
EXTD=
EXTT0=
EXTT1=
EXTT2=
EXTT3=
EXTT4=
EXTT5=
EXTT6=
EXTT7=
EXTT8=
EXTT9=
EXTT10=
EXTT11=
EXTT12=
EXTT13=
EXTT14=
EXTT15=
EXTT16=
EXTT17=
PLAYORDER=
